<?xml version="1.0" standalone="no"?>
<!DOCTYPE svg PUBLIC "-//W3C//DTD SVG 20010904//EN"
 "http://www.w3.org/TR/2001/REC-SVG-20010904/DTD/svg10.dtd">
<svg version="1.0" xmlns="http://www.w3.org/2000/svg"
 width="746.000000pt" height="335.000000pt" viewBox="0 0 746.000000 335.000000"
 preserveAspectRatio="xMidYMid meet">

<g transform="translate(0.000000,335.000000) scale(0.100000,-0.100000)"
fill="#000000" stroke="none">
<path d="M1121 2308 c1 -34 2 -38 8 -19 4 14 12 26 19 27 7 1 8 0 2 -3 -5 -2
-10 -23 -11 -46 0 -34 -2 -38 -10 -22 -7 16 -8 14 -4 -10 7 -45 11 -248 5
-260 -3 -5 0 -11 5 -13 6 -2 13 7 17 20 l6 23 1 -22 c1 -13 5 -23 10 -23 5 0
11 10 13 23 2 16 11 23 31 25 32 4 37 -15 5 -21 -13 -2 33 -6 102 -8 l125 -3
-105 -6 -105 -6 108 -2 c89 -2 107 0 107 13 0 8 5 15 11 15 6 0 9 -7 5 -15 -4
-11 2 -15 24 -15 l30 0 0 189 0 188 -61 7 c-34 3 -89 5 -123 4 -57 -2 -56 -2
24 -8 75 -6 67 -6 -67 -8 -97 -1 -153 2 -153 8 0 6 -4 10 -10 10 -5 0 -10 -19
-9 -42z m344 12 c-16 -4 -66 -7 -110 -7 l-80 1 85 6 c47 3 96 7 110 7 22 1 21
0 -5 -7z m-260 -14 c12 -12 11 -14 -9 -12 -12 0 -23 7 -23 14 0 16 15 15 32
-2z m60 -6 c-3 -5 -14 -10 -23 -9 -14 0 -13 2 3 9 27 11 27 11 20 0z m175 -20
c0 -6 -32 -10 -75 -10 -43 0 -75 4 -75 10 0 6 32 10 75 10 43 0 75 -4 75 -10z
m50 0 c0 -5 -7 -10 -16 -10 -8 0 -12 5 -9 10 3 6 10 10 16 10 5 0 9 -4 9 -10z
m-285 -20 c-3 -5 -13 -10 -21 -10 -8 0 -14 5 -14 10 0 6 9 10 21 10 11 0 17
-4 14 -10z m40 0 c3 -5 -1 -10 -9 -10 -9 0 -16 5 -16 10 0 6 4 10 9 10 6 0 13
-4 16 -10z m-78 -152 c-2 -24 -4 -5 -4 42 0 47 2 66 4 43 2 -24 2 -62 0 -85z
m53 42 c0 -40 -4 -70 -10 -70 -6 0 -10 30 -10 70 0 40 4 70 10 70 6 0 10 -30
10 -70z m77 -102 c-3 -7 -5 -2 -5 12 0 14 2 19 5 13 2 -7 2 -19 0 -25z m20 0
c-3 -7 -5 -2 -5 12 0 14 2 19 5 13 2 -7 2 -19 0 -25z m20 0 c-3 -7 -5 -2 -5
12 0 14 2 19 5 13 2 -7 2 -19 0 -25z m20 0 c-3 -7 -5 -2 -5 12 0 14 2 19 5 13
2 -7 2 -19 0 -25z m20 0 c-3 -7 -5 -2 -5 12 0 14 2 19 5 13 2 -7 2 -19 0 -25z
m20 0 c-3 -7 -5 -2 -5 12 0 14 2 19 5 13 2 -7 2 -19 0 -25z m20 0 c-3 -7 -5
-2 -5 12 0 14 2 19 5 13 2 -7 2 -19 0 -25z m-191 15 c-10 -11 -36 -12 -36 -2
0 5 10 9 22 9 12 0 18 -3 14 -7z m235 -23 c5 0 9 -7 9 -15 0 -8 -4 -15 -10
-15 -15 0 -32 39 -23 53 5 9 9 7 11 -5 2 -10 8 -18 13 -18z m39 -60 c0 -5 -4
-10 -10 -10 -5 0 -10 5 -10 10 0 6 5 10 10 10 6 0 10 -4 10 -10z"/>
<path d="M1248 2343 c7 -3 16 -2 19 1 4 3 -2 6 -13 5 -11 0 -14 -3 -6 -6z"/>
<path d="M2051 2298 c0 -22 1 -22 9 -3 5 12 8 -32 7 -115 l-1 -135 -6 110 -6
110 -2 -142 c-2 -172 -9 -165 145 -160 l108 3 -112 2 c-61 1 -114 5 -116 10
-3 4 68 5 156 3 89 -2 151 -7 137 -11 -23 -6 -22 -7 11 -11 25 -3 36 -1 36 8
0 7 -2 11 -5 8 -2 -2 -13 6 -24 18 -11 12 -17 17 -14 11 6 -13 -25 -15 -41 -1
-9 6 -13 6 -13 -2 0 -6 -4 -11 -8 -11 -5 0 -9 7 -9 15 0 8 3 12 7 10 3 -2 11
4 17 14 8 13 5 23 -18 49 -15 17 -31 27 -34 22 -4 -6 -11 -7 -17 -4 -7 5 -8 2
-3 -6 5 -9 4 -11 -3 -6 -9 5 -9 13 -1 28 8 15 8 19 0 14 -6 -4 -11 -1 -11 7 0
20 -26 41 -34 28 -9 -14 -43 -10 -43 6 0 6 4 10 8 7 4 -2 7 4 6 15 0 11 -5 17
-9 15 -4 -3 -8 1 -8 9 0 8 -8 21 -17 28 -12 10 -15 10 -9 1 5 -9 0 -12 -21
-10 -22 1 -29 7 -31 25 -1 13 3 23 8 23 5 0 7 -6 4 -14 -6 -16 12 -31 20 -17
7 10 -40 71 -55 71 -5 0 -9 -10 -8 -22z m87 -129 c-3 -8 -7 -3 -11 10 -4 17
-3 21 5 13 5 -5 8 -16 6 -23z m-30 -44 c-3 -29 -28 -34 -28 -6 0 16 7 23 27
30 2 1 2 -10 1 -24z m58 -37 c5 -7 3 -8 -7 -3 -8 5 -5 -1 5 -13 11 -12 16 -25
13 -29 -4 -3 -7 0 -7 8 0 11 -2 11 -10 -1 -9 -13 -10 -13 -10 0 0 13 -1 13
-10 0 -9 -13 -10 -13 -10 0 0 13 -1 13 -10 0 -11 -17 -13 -6 -4 28 7 23 38 30
50 10z m64 -7 c0 -10 32 -7 50 4 17 10 11 -3 -12 -30 -20 -23 -22 -23 -34 -7
-11 14 -13 14 -14 2 0 -13 -1 -13 -10 0 -8 12 -10 12 -10 1 0 -8 -3 -12 -6 -9
-7 7 18 48 28 48 5 0 8 -4 8 -9z m-163 -73 c-3 -8 -6 -5 -6 6 -1 11 2 17 5 13
3 -3 4 -12 1 -19z"/>
<path d="M2185 2170 c-3 -5 -1 -10 4 -10 6 0 11 5 11 10 0 6 -2 10 -4 10 -3 0
-8 -4 -11 -10z"/>
<path d="M2332 2018 c6 -18 25 -21 31 -5 3 8 -3 13 -15 14 -10 1 -18 -3 -16
-9z"/>
<path d="M2680 1940 c10 -7 11 -10 2 -10 -18 0 -17 -996 1 -1003 9 -4 9 -6 0
-6 -7 -1 -13 -8 -13 -16 0 -12 16 -15 80 -15 l80 0 2 448 3 447 148 5 c81 3
151 2 155 -1 4 -4 27 -9 52 -12 64 -8 71 -10 92 -30 10 -10 24 -15 31 -11 7 4
9 4 5 -1 -4 -4 14 -23 40 -41 26 -19 43 -34 37 -34 -5 0 1 -7 13 -16 15 -10
21 -22 17 -32 -3 -9 -3 -13 1 -9 9 8 41 -82 49 -138 8 -53 -8 -148 -36 -210
-12 -27 -21 -54 -20 -58 1 -5 -2 -6 -7 -3 -10 6 -63 -49 -56 -58 2 -3 1 -4 -2
-1 -4 2 -21 -7 -39 -20 -17 -14 -37 -25 -43 -25 -7 0 -12 -5 -12 -11 0 -5 -4
-8 -9 -5 -4 3 -23 1 -42 -5 -19 -6 -74 -13 -123 -17 -63 -5 -91 -11 -94 -21
-3 -8 0 -11 7 -7 7 5 9 1 5 -8 -3 -9 -11 -13 -17 -9 -6 3 -7 1 -3 -6 4 -6 0
-18 -8 -27 -9 -8 -16 -24 -16 -35 0 -10 -4 -19 -10 -19 -5 0 -7 -7 -3 -15 4
-13 23 -16 97 -14 50 1 120 6 156 11 70 11 183 56 174 69 -3 5 1 6 9 3 8 -3
21 3 28 14 8 11 18 21 24 23 5 2 9 8 7 12 -1 5 2 6 7 3 9 -6 24 11 59 60 7 11
9 12 5 4 -6 -13 -4 -13 10 -1 20 16 23 36 5 25 -7 -4 2 8 19 26 100 103 118
410 30 505 -10 11 -16 28 -13 37 2 10 0 16 -5 12 -5 -3 -9 0 -9 5 0 6 0 13 0
16 0 9 -45 50 -52 48 -4 -2 -5 4 -2 12 5 11 2 13 -10 9 -9 -4 -16 -2 -14 4 4
13 -42 53 -53 46 -5 -3 -6 3 -2 13 6 16 4 16 -18 -2 -13 -11 -19 -13 -12 -6
14 16 4 28 -42 53 -93 50 -106 52 -400 55 -192 3 -275 0 -265 -7z m858 -325
c-3 -3 -9 2 -12 12 -6 14 -5 15 5 6 7 -7 10 -15 7 -18z m29 -7 c-3 -8 -6 -5
-6 6 -1 11 2 17 5 13 3 -3 4 -12 1 -19z m-23 -424 c3 -8 2 -12 -4 -9 -6 3 -10
10 -10 16 0 14 7 11 14 -7z m-49 -83 c-9 -8 -36 -10 -30 -2 2 4 11 8 20 8 8 0
13 -3 10 -6z m-270 -51 c3 -6 -1 -7 -9 -4 -18 7 -21 14 -7 14 6 0 13 -4 16
-10z m182 -45 c0 -8 -4 -12 -9 -9 -5 3 -6 10 -3 15 9 13 12 11 12 -6z m-396
-22 c-12 -20 -14 -14 -5 12 4 9 9 14 11 11 3 -2 0 -13 -6 -23z"/>
<path d="M4078 1918 c-53 -106 -81 -174 -82 -198 -1 -16 -4 -26 -7 -24 -12 7
-39 -45 -32 -63 3 -10 3 -15 -2 -11 -8 8 -45 -57 -45 -79 0 -7 -5 -13 -10 -13
-6 0 -9 -3 -8 -7 1 -5 -4 -21 -10 -36 -44 -106 -57 -134 -68 -147 -6 -8 -15
-31 -19 -50 -4 -19 -16 -46 -26 -59 -11 -13 -19 -35 -19 -48 0 -13 -4 -22 -9
-19 -4 3 -6 -7 -4 -22 4 -21 2 -24 -6 -12 -9 12 -11 9 -11 -15 0 -16 -5 -37
-11 -45 -8 -12 -9 -9 -5 10 4 15 -2 8 -13 -15 -11 -22 -20 -48 -20 -57 -1 -10
-5 -18 -10 -18 -5 0 -12 -13 -16 -30 -4 -16 -11 -32 -16 -35 -5 -4 -9 -12 -9
-20 0 -21 148 -18 173 3 18 16 24 38 7 27 -5 -3 6 22 25 55 23 41 33 71 31 90
-2 17 1 27 6 24 5 -3 7 -12 4 -19 -4 -10 3 -13 27 -10 18 2 119 5 225 5 l194
2 -19 20 c-10 11 -17 23 -17 27 1 3 -3 17 -8 31 -7 20 -11 22 -18 10 -6 -8
-10 -10 -10 -4 0 5 5 15 11 21 8 8 5 17 -10 32 -20 20 -31 22 -147 20 -69 0
-130 3 -135 8 -10 10 7 62 24 74 5 3 9 9 8 12 0 7 17 51 49 125 11 23 16 42
12 42 -4 0 -2 4 4 8 13 8 47 72 39 72 -4 0 1 10 9 21 8 12 12 28 9 37 -4 9 -2
13 4 9 10 -6 29 37 25 56 -1 4 2 7 7 7 5 0 12 9 16 19 7 22 45 18 45 -5 0 -8
5 -14 11 -14 5 0 8 -4 4 -9 -3 -5 6 -30 19 -55 13 -25 32 -68 41 -96 9 -28 20
-48 24 -46 4 3 7 -3 8 -12 1 -20 47 -129 58 -140 5 -4 5 -1 1 5 -4 7 -3 21 3
30 7 13 8 6 6 -25 -1 -24 3 -49 11 -59 7 -10 14 -26 14 -36 0 -11 4 -15 12
-11 8 5 9 2 5 -9 -3 -9 0 -23 8 -31 8 -8 15 -20 15 -26 0 -6 4 -8 10 -5 5 3 7
0 4 -8 -6 -16 26 -97 38 -97 4 0 4 -7 1 -17 -4 -9 -2 -14 3 -11 5 3 16 -1 24
-10 13 -14 12 -15 -5 -8 -16 6 -18 5 -7 -5 6 -7 12 -21 12 -32 0 -10 4 -15 10
-12 6 3 7 -1 4 -9 -3 -9 -1 -16 5 -16 6 0 10 -3 9 -7 -3 -16 15 -63 24 -63 5
0 6 6 2 13 -6 9 -4 9 7 -1 20 -18 159 -17 159 2 0 8 -5 16 -11 18 -5 2 -11 10
-13 18 -5 31 -19 66 -37 92 -11 14 -19 34 -19 43 0 10 -5 13 -12 9 -7 -5 -8
-3 -3 6 12 20 -36 111 -57 106 -11 -2 -15 1 -11 10 3 8 9 11 14 8 15 -9 10 4
-27 76 -20 38 -40 68 -44 65 -3 -2 -4 9 -2 26 3 17 0 29 -7 29 -6 0 -10 3 -10
8 1 4 1 14 0 22 -1 13 -2 13 -11 0 -8 -12 -10 -10 -10 10 0 31 -30 110 -41
110 -5 0 -9 9 -9 21 0 13 -4 18 -12 13 -7 -4 -8 -3 -4 4 4 6 1 22 -6 34 -7 13
-12 26 -13 30 0 4 -8 17 -18 28 -10 12 -15 25 -12 30 3 5 -4 23 -16 39 -12 16
-18 34 -15 40 4 6 3 11 -2 11 -6 0 -13 11 -16 25 -4 14 -11 25 -16 25 -5 0 -7
6 -4 14 3 8 0 17 -5 21 -6 3 -9 11 -6 16 4 5 1 9 -4 9 -6 0 -10 6 -8 13 1 6
-7 12 -18 12 -12 0 -19 -6 -17 -15 2 -11 -1 -11 -11 3 -11 13 -29 17 -78 17
-63 0 -65 -1 -81 -32z m1 -132 c-3 -3 -11 5 -18 17 -13 21 -12 21 5 5 10 -10
16 -20 13 -22z m161 -50 c0 -3 -4 -8 -10 -11 -5 -3 -10 -1 -10 4 0 6 5 11 10
11 6 0 10 -2 10 -4z m-332 -251 c-6 -14 -13 -23 -15 -21 -5 5 15 46 22 46 3 0
-1 -11 -7 -25z m123 -8 c-10 -9 -11 -8 -5 6 3 10 9 15 12 12 3 -3 0 -11 -7
-18z m-258 -462 c-3 -9 -8 -14 -10 -11 -3 3 -2 9 2 15 9 16 15 13 8 -4z m927
-25 c0 -5 -2 -10 -4 -10 -3 0 -8 5 -11 10 -3 6 -1 10 4 10 6 0 11 -4 11 -10z"/>
<path d="M4860 1421 l1 -530 292 -1 292 0 0 80 0 80 -212 0 -213 0 0 450 0
450 -80 0 -80 0 0 -529z"/>
<path d="M5552 1422 l3 -527 76 -3 c56 -2 78 1 80 10 2 7 2 203 -1 435 -3 246
-1 419 4 416 5 -3 7 5 4 18 l-4 24 135 -5 c75 -3 138 -2 139 3 2 4 8 7 13 7 6
0 8 -4 4 -9 -7 -12 31 -25 46 -15 7 4 9 3 6 -3 -4 -6 3 -19 15 -29 12 -11 19
-14 15 -8 -3 6 0 11 7 11 8 0 12 -5 10 -11 -5 -15 23 -49 34 -42 6 3 12 -1 15
-9 4 -9 1 -12 -8 -9 -12 5 -12 1 1 -25 11 -22 14 -48 11 -84 -8 -84 -10 -90
-49 -130 -21 -21 -38 -43 -38 -49 0 -6 -3 -9 -6 -6 -3 4 -20 0 -38 -7 -18 -8
-59 -15 -90 -16 -54 -2 -59 -4 -71 -33 -41 -96 -48 -112 -52 -119 -6 -10 205
-7 232 3 11 4 23 8 28 9 4 0 30 13 57 27 41 21 48 29 39 40 -10 12 -9 13 5 8
10 -4 16 -1 16 7 0 7 3 10 6 6 10 -10 54 36 54 56 0 11 3 18 6 14 10 -10 43
63 37 80 -4 11 -2 14 5 9 6 -4 11 1 12 11 0 10 3 42 6 71 8 75 -2 126 -24 117
-14 -5 -15 -4 -4 6 14 15 16 33 2 24 -6 -3 -7 1 -4 9 3 8 -4 29 -16 46 -12 16
-19 30 -15 30 3 0 -3 10 -15 22 -11 12 -20 25 -20 30 0 4 -10 12 -21 19 -13 7
-19 7 -15 1 3 -6 2 -13 -3 -16 -4 -3 -8 4 -7 16 1 16 -10 29 -39 45 -22 13
-46 21 -53 18 -8 -3 -10 0 -6 6 4 8 -1 9 -16 4 -14 -4 -20 -3 -16 3 8 13 4 13
-267 18 l-228 4 3 -528z m725 56 c-3 -8 -6 -5 -6 6 -1 11 2 17 5 13 3 -3 4
-12 1 -19z"/>
<path d="M1160 893 c0 -25 -15 -31 -23 -10 -2 7 -8 8 -13 3 -5 -5 -4 -10 2
-13 8 -3 11 -48 8 -156 -3 -84 -6 -156 -8 -162 -2 -6 68 -10 195 -11 l199 -1
0 178 c0 158 -8 215 -23 177 -4 -10 -8 -9 -16 2 -10 13 -11 13 -12 0 -1 -8 -1
-18 0 -22 0 -5 -4 -8 -9 -8 -5 0 -10 10 -10 23 0 15 -3 18 -9 9 -6 -10 -37
-12 -129 -10 -93 2 -122 0 -122 -9 0 -7 -5 -13 -11 -13 -5 0 -8 4 -5 8 2 4 1
14 -5 22 -7 12 -9 10 -9 -7z m223 -20 c-35 -2 -91 -2 -125 0 -35 2 -7 3 62 3
69 0 97 -1 63 -3z m88 -36 c-13 -13 -26 -3 -16 12 3 6 11 8 17 5 6 -4 6 -10
-1 -17z m-174 -49 c-3 -7 -5 -2 -5 12 0 14 2 19 5 13 2 -7 2 -19 0 -25z m20 0
c-3 -7 -5 -2 -5 12 0 14 2 19 5 13 2 -7 2 -19 0 -25z m20 0 c-3 -7 -5 -2 -5
12 0 14 2 19 5 13 2 -7 2 -19 0 -25z m20 0 c-3 -7 -5 -2 -5 12 0 14 2 19 5 13
2 -7 2 -19 0 -25z m20 0 c-3 -7 -5 -2 -5 12 0 14 2 19 5 13 2 -7 2 -19 0 -25z
m20 0 c-3 -7 -5 -2 -5 12 0 14 2 19 5 13 2 -7 2 -19 0 -25z m20 0 c-3 -7 -5
-2 -5 12 0 14 2 19 5 13 2 -7 2 -19 0 -25z m-177 10 c0 -4 -11 -8 -25 -8 -14
0 -25 4 -25 8 0 4 11 8 25 8 14 0 25 -4 25 -8z m215 2 c3 -5 -1 -10 -9 -10 -9
0 -16 5 -16 10 0 6 4 10 9 10 6 0 13 -4 16 -10z m35 -10 c0 -5 -2 -10 -4 -10
-3 0 -8 5 -11 10 -3 6 -1 10 4 10 6 0 11 -4 11 -10z m-320 -105 c1 -55 2 -109
1 -120 l-2 -20 -7 20 c-7 19 -4 231 3 223 2 -1 4 -48 5 -103z m49 17 c-1 -50
-6 -79 -13 -79 -7 0 -10 26 -8 79 5 103 24 103 21 0z m58 -94 c6 -5 50 -8 97
-6 64 2 86 0 86 -9 0 -7 5 -13 11 -13 6 0 9 6 6 13 -3 8 -1 20 4 28 6 10 9 7
9 -13 0 -29 -13 -43 -31 -32 -7 4 -49 6 -95 5 -53 -1 -84 2 -84 8 0 7 -8 7
-26 1 -38 -15 -64 -12 -64 6 0 13 7 15 36 11 34 -6 35 -5 18 8 -18 15 -18 15
1 8 11 -3 25 -10 32 -15z"/>
<path d="M2062 890 c-8 -13 -12 -73 -12 -185 0 -175 5 -190 44 -143 16 19 17
20 1 15 -11 -5 -15 -3 -13 5 3 7 15 13 28 13 13 0 25 7 27 15 4 12 3 12 -5 1
-7 -9 -11 -10 -17 -2 -5 9 -10 9 -21 0 -11 -9 -14 -8 -14 3 0 12 10 14 45 12
28 -2 45 0 45 7 0 6 11 20 25 31 27 21 34 41 10 32 -8 -3 -13 -11 -12 -16 1
-6 -4 -13 -11 -15 -12 -4 -12 -1 -1 18 11 21 10 22 -3 12 -12 -10 -15 -10 -15
1 0 9 12 13 36 12 24 -1 43 5 55 18 16 16 16 18 3 13 -21 -8 -22 6 -3 22 10 8
16 9 21 1 8 -12 25 -4 25 13 0 8 -3 8 -9 -2 -7 -10 -12 -8 -26 10 -10 15 -15
17 -12 7 4 -10 2 -20 -3 -23 -6 -4 -10 2 -11 12 0 11 -3 13 -6 5 -2 -6 -10 -9
-16 -5 -21 13 -49 10 -54 -5 -9 -22 -52 -62 -68 -62 -18 0 -20 41 -3 58 10 10
10 15 -1 21 -8 5 -10 14 -6 21 6 9 9 9 16 -1 7 -11 9 -11 9 1 0 13 1 13 10 0
9 -13 10 -13 10 0 0 13 1 13 10 0 9 -13 10 -13 10 0 0 13 1 13 10 0 9 -13 10
-13 10 0 0 13 1 13 10 0 9 -13 10 -13 10 0 0 13 1 13 10 0 9 -13 10 -13 10 0
0 13 1 13 10 0 6 -10 10 -11 10 -2 0 19 28 14 35 -7 4 -13 14 -19 28 -18 26 2
61 34 47 42 -6 4 -10 1 -10 -6 0 -7 -3 -10 -6 -6 -3 3 -2 12 2 19 19 30 12 38
-32 38 -28 0 -44 -4 -44 -12 0 -10 -2 -10 -9 0 -6 10 -31 13 -93 10 -54 -2
-84 1 -82 7 2 6 40 10 87 9 l82 -1 -75 4 c-41 2 -77 8 -80 13 -3 5 -11 0 -18
-10z m5 -257 c-1 -43 -3 -10 -3 72 0 83 2 118 3 78 2 -40 2 -107 0 -150z"/>
<path d="M2416 898 c3 -5 10 -6 15 -3 13 9 11 12 -6 12 -8 0 -12 -4 -9 -9z"/>
<path d="M2340 886 c0 -2 18 -6 39 -8 22 -2 37 0 35 4 -5 8 -74 11 -74 4z"/>
<path d="M2345 861 c-2 -4 0 -13 5 -21 8 -12 12 -11 29 6 19 21 19 22 -5 22
-13 0 -26 -4 -29 -7z m25 -11 c0 -5 -2 -10 -4 -10 -3 0 -8 5 -11 10 -3 6 -1
10 4 10 6 0 11 -4 11 -10z"/>
<path d="M1160 530 c-25 -3 47 -7 160 -7 113 -1 201 0 195 2 -17 7 -307 10
-355 5z"/>
</g>
</svg>
